# xmcd
# 
# Track frame offsets:
#     150
#     34533
#     84325
#     107784
#     139180
#     180455
#     226752
#     260170
# 
# Disc length: 4434
# 
# Revision: 2
# Processed by: cddbd v1.5.2PL0 Copyright (c) Steve Scherf et al.
# Submitted via: fre:ac v1.0.31
# 
DISCID=5f115008
DTITLE=Camel - Moonmadness  Deluxe Edition  Disc 2
DYEAR=0
DGENRE=Rock/Pop
TTITLE0=Song Within A Song
TTITLE1=Excerpts From The Snow Goose
TTITLE2=Air Born
TTITLE3=Chord Change
TTITLE4=The White Rider
TTITLE5=Preparation \\ Dunkirk
TTITLE6=Another Night
TTITLE7=Lady Fantasy
EXTD=
EXTT0=
EXTT1=
EXTT2=
EXTT3=
EXTT4=
EXTT5=
EXTT6=
EXTT7=
PLAYORDER=
